<svg width="70" height="42" viewBox="0 0 70 42" fill="none" xmlns="http://www.w3.org/2000/svg">
<rect x="1" y="1" width="47" height="40" stroke="#10162F" stroke-width="2"/>
<mask id="path-2-inside-1_104_16" fill="white">
<path d="M14.728 33.32C13.32 33.32 12.0933 33.0533 11.048 32.52C10.024 31.9867 9.224 31.2187 8.648 30.216C8.09333 29.192 7.816 27.9867 7.816 26.6V16.04C7.816 14.632 8.09333 13.4267 8.648 12.424C9.224 11.4213 10.024 10.6533 11.048 10.12C12.0933 9.58667 13.32 9.32 14.728 9.32C16.136 9.32 17.352 9.59733 18.376 10.152C19.4 10.6853 20.1893 11.4533 20.744 12.456C21.2987 13.4587 21.576 14.6533 21.576 16.04H18.696C18.696 14.7173 18.344 13.704 17.64 13C16.9573 12.2747 15.9867 11.912 14.728 11.912C13.4693 11.912 12.4773 12.264 11.752 12.968C11.048 13.672 10.696 14.6853 10.696 16.008V26.6C10.696 27.9227 11.048 28.9467 11.752 29.672C12.4773 30.3973 13.4693 30.76 14.728 30.76C15.9867 30.76 16.9573 30.3973 17.64 29.672C18.344 28.9467 18.696 27.9227 18.696 26.6V23.72H13.96V21.096H21.576V26.6C21.576 27.9653 21.2987 29.16 20.744 30.184C20.1893 31.1867 19.4 31.9653 18.376 32.52C17.352 33.0533 16.136 33.32 14.728 33.32ZM33.7875 33.256C32.3795 33.256 31.1635 32.9893 30.1395 32.456C29.1155 31.9227 28.3155 31.1547 27.7395 30.152C27.1848 29.128 26.9075 27.9227 26.9075 26.536V21.864C26.9075 20.456 27.1848 19.2507 27.7395 18.248C28.3155 17.2453 29.1155 16.4773 30.1395 15.944C31.1635 15.4107 32.3795 15.144 33.7875 15.144C35.1955 15.144 36.4115 15.4107 37.4355 15.944C38.4595 16.4773 39.2488 17.2453 39.8035 18.248C40.3795 19.2507 40.6675 20.4453 40.6675 21.832V26.536C40.6675 27.9227 40.3795 29.128 39.8035 30.152C39.2488 31.1547 38.4595 31.9227 37.4355 32.456C36.4115 32.9893 35.1955 33.256 33.7875 33.256ZM33.7875 30.696C35.0462 30.696 36.0275 30.344 36.7315 29.64C37.4355 28.936 37.7875 27.9013 37.7875 26.536V21.864C37.7875 20.4987 37.4355 19.464 36.7315 18.76C36.0275 18.056 35.0462 17.704 33.7875 17.704C32.5502 17.704 31.5688 18.056 30.8435 18.76C30.1395 19.464 29.7875 20.4987 29.7875 21.864V26.536C29.7875 27.9013 30.1395 28.936 30.8435 29.64C31.5688 30.344 32.5502 30.696 33.7875 30.696Z"/>
</mask>
<path d="M14.728 33.32C13.32 33.32 12.0933 33.0533 11.048 32.52C10.024 31.9867 9.224 31.2187 8.648 30.216C8.09333 29.192 7.816 27.9867 7.816 26.6V16.04C7.816 14.632 8.09333 13.4267 8.648 12.424C9.224 11.4213 10.024 10.6533 11.048 10.12C12.0933 9.58667 13.32 9.32 14.728 9.32C16.136 9.32 17.352 9.59733 18.376 10.152C19.4 10.6853 20.1893 11.4533 20.744 12.456C21.2987 13.4587 21.576 14.6533 21.576 16.04H18.696C18.696 14.7173 18.344 13.704 17.64 13C16.9573 12.2747 15.9867 11.912 14.728 11.912C13.4693 11.912 12.4773 12.264 11.752 12.968C11.048 13.672 10.696 14.6853 10.696 16.008V26.6C10.696 27.9227 11.048 28.9467 11.752 29.672C12.4773 30.3973 13.4693 30.76 14.728 30.76C15.9867 30.76 16.9573 30.3973 17.64 29.672C18.344 28.9467 18.696 27.9227 18.696 26.6V23.72H13.96V21.096H21.576V26.6C21.576 27.9653 21.2987 29.16 20.744 30.184C20.1893 31.1867 19.4 31.9653 18.376 32.52C17.352 33.0533 16.136 33.32 14.728 33.32ZM33.7875 33.256C32.3795 33.256 31.1635 32.9893 30.1395 32.456C29.1155 31.9227 28.3155 31.1547 27.7395 30.152C27.1848 29.128 26.9075 27.9227 26.9075 26.536V21.864C26.9075 20.456 27.1848 19.2507 27.7395 18.248C28.3155 17.2453 29.1155 16.4773 30.1395 15.944C31.1635 15.4107 32.3795 15.144 33.7875 15.144C35.1955 15.144 36.4115 15.4107 37.4355 15.944C38.4595 16.4773 39.2488 17.2453 39.8035 18.248C40.3795 19.2507 40.6675 20.4453 40.6675 21.832V26.536C40.6675 27.9227 40.3795 29.128 39.8035 30.152C39.2488 31.1547 38.4595 31.9227 37.4355 32.456C36.4115 32.9893 35.1955 33.256 33.7875 33.256ZM33.7875 30.696C35.0462 30.696 36.0275 30.344 36.7315 29.64C37.4355 28.936 37.7875 27.9013 37.7875 26.536V21.864C37.7875 20.4987 37.4355 19.464 36.7315 18.76C36.0275 18.056 35.0462 17.704 33.7875 17.704C32.5502 17.704 31.5688 18.056 30.8435 18.76C30.1395 19.464 29.7875 20.4987 29.7875 21.864V26.536C29.7875 27.9013 30.1395 28.936 30.8435 29.64C31.5688 30.344 32.5502 30.696 33.7875 30.696Z" fill="#10162F"/>
<path d="M11.048 32.52L0.885444 52.0321L0.96737 52.0748L1.04965 52.1168L11.048 32.52ZM8.648 30.216L-10.6964 40.6942L-10.5654 40.9362L-10.4283 41.1747L8.648 30.216ZM8.648 12.424L-10.4283 1.46527L-10.5168 1.61926L-10.6027 1.77465L8.648 12.424ZM11.048 10.12L1.04966 -9.47677L0.967378 -9.43479L0.885452 -9.39212L11.048 10.12ZM18.376 10.152L7.89778 29.4964L8.05493 29.5815L8.21343 29.6641L18.376 10.152ZM21.576 16.04V38.04H43.576V16.04H21.576ZM18.696 16.04H-3.304V38.04H18.696V16.04ZM17.64 13L1.61959 28.078L1.848 28.3207L2.08366 28.5564L17.64 13ZM11.752 12.968L-3.57046 -2.81878L-3.68826 -2.70444L-3.80435 -2.58835L11.752 12.968ZM11.752 29.672L-4.03478 44.9945L-3.92044 45.1123L-3.80435 45.2283L11.752 29.672ZM17.64 29.672L1.85323 14.3495L1.73548 14.4709L1.6196 14.594L17.64 29.672ZM18.696 23.72H40.696V1.72H18.696V23.72ZM13.96 23.72H-8.04V45.72H13.96V23.72ZM13.96 21.096V-0.904H-8.04V21.096H13.96ZM21.576 21.096H43.576V-0.904H21.576V21.096ZM20.744 30.184L39.9948 40.8333L40.042 40.748L40.0884 40.6622L20.744 30.184ZM18.376 32.52L28.5386 52.0321L28.6971 51.9495L28.8542 51.8644L18.376 32.52ZM14.728 11.32C16.1075 11.32 18.4356 11.5912 21.0463 12.9232L1.04965 52.1168C5.75104 54.5154 10.5325 55.32 14.728 55.32V11.32ZM21.2106 13.0079C23.9198 14.419 26.2104 16.6219 27.7243 19.2573L-10.4283 41.1747C-7.7624 45.8154 -3.87184 49.5544 0.885444 52.0321L21.2106 13.0079ZM27.9924 19.7378C29.4847 22.4927 29.816 25.0239 29.816 26.6H-14.184C-14.184 30.9494 -13.298 35.8913 -10.6964 40.6942L27.9924 19.7378ZM29.816 26.6V16.04H-14.184V26.6H29.816ZM29.816 16.04C29.816 17.5136 29.5159 20.1501 27.8987 23.0734L-10.6027 1.77465C-13.3292 6.70326 -14.184 11.7504 -14.184 16.04H29.816ZM27.7243 23.3827C26.2104 26.0181 23.9198 28.221 21.2105 29.6321L0.885452 -9.39212C-3.87184 -6.91436 -7.76241 -3.17541 -10.4283 1.46527L27.7243 23.3827ZM21.0463 29.7168C18.4356 31.0488 16.1075 31.32 14.728 31.32V-12.68C10.5325 -12.68 5.75104 -11.8754 1.04966 -9.47677L21.0463 29.7168ZM14.728 31.32C13.2366 31.32 10.6991 31.0138 7.89778 29.4964L28.8542 -9.19243C24.0049 -11.8191 19.0354 -12.68 14.728 -12.68V31.32ZM8.21343 29.6641C5.43406 28.2165 3.04822 25.9163 1.49325 23.1053L39.9947 1.80665C37.3304 -3.00959 33.3659 -6.84584 28.5386 -9.36011L8.21343 29.6641ZM1.49325 23.1053C-0.0981195 20.2286 -0.424 17.5998 -0.424 16.04H43.576C43.576 11.7068 42.6955 6.68869 39.9947 1.80665L1.49325 23.1053ZM21.576 -5.96H18.696V38.04H21.576V-5.96ZM40.696 16.04C40.696 10.8653 39.2436 3.49085 33.1963 -2.55636L2.08366 28.5564C-2.55556 23.9171 -3.304 18.5693 -3.304 16.04H40.696ZM33.6604 -2.07802C27.7836 -8.32208 20.3533 -10.088 14.728 -10.088V33.912C11.6201 33.912 6.13102 32.8714 1.61959 28.078L33.6604 -2.07802ZM14.728 -10.088C9.22515 -10.088 2.21029 -8.42951 -3.57046 -2.81878L27.0745 28.7548C22.7444 32.9575 17.7135 33.912 14.728 33.912V-10.088ZM-3.80435 -2.58835C-9.85156 3.45886 -11.304 10.8333 -11.304 16.008H32.696C32.696 18.5373 31.9476 23.8851 27.3083 28.5244L-3.80435 -2.58835ZM-11.304 16.008V26.6H32.696V16.008H-11.304ZM-11.304 26.6C-11.304 31.8165 -9.83669 39.0167 -4.03478 44.9945L27.5388 14.3495C31.9327 18.8766 32.696 24.0289 32.696 26.6H-11.304ZM-3.80435 45.2283C1.94572 50.9784 9.04236 52.76 14.728 52.76V8.76C17.8963 8.76 23.0089 9.81625 27.3084 14.1157L-3.80435 45.2283ZM14.728 52.76C20.3533 52.76 27.7836 50.9941 33.6604 44.75L1.6196 14.594C6.13103 9.80059 11.6201 8.76 14.728 8.76V52.76ZM33.4268 44.9945C39.2287 39.0167 40.696 31.8165 40.696 26.6H-3.304C-3.304 24.0289 -2.54069 18.8766 1.85323 14.3495L33.4268 44.9945ZM40.696 26.6V23.72H-3.304V26.6H40.696ZM18.696 1.72H13.96V45.72H18.696V1.72ZM35.96 23.72V21.096H-8.04V23.72H35.96ZM13.96 43.096H21.576V-0.904H13.96V43.096ZM-0.424 21.096V26.6H43.576V21.096H-0.424ZM-0.424 26.6C-0.424 24.9387 -0.0668946 22.4131 1.39958 19.7058L40.0884 40.6622C42.6642 35.9069 43.576 30.992 43.576 26.6H-0.424ZM1.49325 19.5347C3.00735 16.7976 5.2912 14.5875 7.89777 13.1756L28.8542 51.8644C33.5088 49.3432 37.3713 45.5757 39.9948 40.8333L1.49325 19.5347ZM8.21344 13.0079C10.9439 11.5858 13.3648 11.32 14.728 11.32V55.32C18.9072 55.32 23.7601 54.5209 28.5386 52.0321L8.21344 13.0079ZM30.1395 32.456L19.9769 51.9681L19.9769 51.9681L30.1395 32.456ZM27.7395 30.152L8.39508 40.6302L8.52612 40.8722L8.66318 41.1107L27.7395 30.152ZM27.7395 18.248L8.66318 7.28926L8.57472 7.44325L8.48875 7.59864L27.7395 18.248ZM30.1395 15.944L19.977 -3.56812L19.9769 -3.5681L30.1395 15.944ZM37.4355 15.944L47.5981 -3.5681L47.598 -3.56812L37.4355 15.944ZM39.8035 18.248L20.5528 28.8974L20.6387 29.0528L20.7272 29.2067L39.8035 18.248ZM39.8035 30.152L20.6288 19.3663L20.5906 19.4343L20.5528 19.5026L39.8035 30.152ZM37.4355 32.456L47.5981 51.9681L47.5981 51.9681L37.4355 32.456ZM36.7315 29.64L52.2879 45.1963L52.2879 45.1963L36.7315 29.64ZM30.8435 18.76L15.521 2.97322L15.4032 3.08756L15.2872 3.20365L30.8435 18.76ZM30.8435 29.64L15.2871 45.1963L15.4032 45.3124L15.521 45.4268L30.8435 29.64ZM33.7875 11.256C35.1507 11.256 37.5716 11.5218 40.3021 12.9439L19.9769 51.9681C24.7554 54.4569 29.6083 55.256 33.7875 55.256V11.256ZM40.3021 12.9439C43.0113 14.355 45.3019 16.5579 46.8158 19.1933L8.66318 41.1107C11.3291 45.7514 15.2197 49.4904 19.9769 51.9681L40.3021 12.9439ZM47.0839 19.6738C48.5762 22.4287 48.9075 24.9599 48.9075 26.536H4.9075C4.9075 30.8854 5.79351 35.8273 8.39508 40.6302L47.0839 19.6738ZM48.9075 26.536V21.864H4.9075V26.536H48.9075ZM48.9075 21.864C48.9075 23.3376 48.6074 25.9741 46.9902 28.8974L8.48875 7.59864C5.76228 12.5273 4.9075 17.5744 4.9075 21.864H48.9075ZM46.8158 29.2067C45.3019 31.8421 43.0113 34.045 40.3021 35.4561L19.9769 -3.5681C15.2197 -1.09035 11.3291 2.64859 8.66318 7.28926L46.8158 29.2067ZM40.302 35.4561C37.5716 36.8782 35.1507 37.144 33.7875 37.144V-6.856C29.6083 -6.856 24.7554 -6.05687 19.977 -3.56812L40.302 35.4561ZM33.7875 37.144C32.4243 37.144 30.0034 36.8782 27.273 35.4561L47.598 -3.56812C42.8196 -6.05687 37.9667 -6.856 33.7875 -6.856V37.144ZM27.2729 35.4561C24.4936 34.0085 22.1077 31.7083 20.5528 28.8974L59.0542 7.59864C56.3899 2.78241 52.4254 -1.05384 47.5981 -3.5681L27.2729 35.4561ZM20.7272 29.2067C19.0388 26.2677 18.6675 23.5244 18.6675 21.832H62.6675C62.6675 17.3663 61.7202 12.2337 58.8798 7.28926L20.7272 29.2067ZM18.6675 21.832V26.536H62.6675V21.832H18.6675ZM18.6675 26.536C18.6675 24.8282 19.0439 22.1838 20.6288 19.3663L58.9782 40.9377C61.7151 36.0722 62.6675 31.0172 62.6675 26.536H18.6675ZM20.5528 19.5026C22.1077 16.6917 24.4936 14.3915 27.2729 12.9439L47.5981 51.9681C52.4254 49.4538 56.3899 45.6176 59.0542 40.8014L20.5528 19.5026ZM27.2729 12.9439C30.0034 11.5218 32.4243 11.256 33.7875 11.256V55.256C37.9667 55.256 42.8196 54.4569 47.5981 51.9681L27.2729 12.9439ZM33.7875 52.696C39.2586 52.696 46.4373 51.0469 52.2879 45.1963L21.1751 14.0837C25.6177 9.64114 30.8337 8.696 33.7875 8.696V52.696ZM52.2879 45.1963C58.4572 39.027 59.7875 31.5201 59.7875 26.536H15.7875C15.7875 24.2825 16.4138 18.845 21.1751 14.0837L52.2879 45.1963ZM59.7875 26.536V21.864H15.7875V26.536H59.7875ZM59.7875 21.864C59.7875 16.8799 58.4572 9.37303 52.2878 3.20365L21.1752 34.3163C16.4138 29.555 15.7875 24.1175 15.7875 21.864H59.7875ZM52.2878 3.20365C46.4373 -2.64687 39.2586 -4.296 33.7875 -4.296V39.704C30.8337 39.704 25.6177 38.7589 21.1752 34.3163L52.2878 3.20365ZM33.7875 -4.296C28.1864 -4.296 21.2323 -2.57006 15.521 2.97322L46.166 34.5468C41.9054 38.6821 36.9139 39.704 33.7875 39.704V-4.296ZM15.2872 3.20365C9.11777 9.37303 7.7875 16.8799 7.7875 21.864H51.7875C51.7875 24.1175 51.1612 29.555 46.3998 34.3163L15.2872 3.20365ZM7.7875 21.864V26.536H51.7875V21.864H7.7875ZM7.7875 26.536C7.7875 31.5201 9.11777 39.027 15.2871 45.1963L46.3999 14.0837C51.1612 18.845 51.7875 24.2825 51.7875 26.536H7.7875ZM15.521 45.4268C21.2323 50.9701 28.1864 52.696 33.7875 52.696V8.696C36.9139 8.696 41.9054 9.71795 46.166 13.8532L15.521 45.4268Z" fill="#10162F" mask="url(#path-2-inside-1_104_16)"/>
<path d="M70 40H53V44H70V40Z" fill="#10162F" mask="url(#path-4-inside-2_104_16)"/>
</svg>
